<?xml version="1.0" encoding="UTF-8" standalone="no"?>
<svg width="50px" height="50px" viewBox="0 0 50 50" version="1.1" xmlns="http://www.w3.org/2000/svg" xmlns:xlink="http://www.w3.org/1999/xlink" xmlns:sketch="http://www.bohemiancoding.com/sketch/ns">
    <!-- Generator: Sketch 3.1.1 (8761) - http://www.bohemiancoding.com/sketch -->
    <title>google</title>
    <desc>Created with Sketch.</desc>
    <defs></defs>
    <g id="Page-1" stroke="none" stroke-width="1" fill="none" fill-rule="evenodd" sketch:type="MSPage">
        <g id="google" sketch:type="MSArtboardGroup" fill="#000000">
            <path d="M41.6303984,20.3780682 L41.6303984,12.3667045 L36.3296507,12.3667045 L36.3296507,20.3780682 L27.9600491,20.3780682 L27.9600491,25.4519318 L36.3296507,25.4519318 L36.3296507,33.4632955 L41.6303984,33.4632955 L41.6303984,25.4519318 L50,25.4519318 L50,20.3780682 L41.6303984,20.3780682 L41.6303984,20.3780682 Z M20.0089276,11.1489773 C21.2699476,15.3843182 19.3672581,19.8172727 16.3374623,20.6344318 C15.9915188,20.7252273 15.6344158,20.7732955 15.2661533,20.7732955 C12.4930253,20.7732955 9.74221627,18.0868182 8.72670461,14.3855682 C8.1575717,12.3079545 8.20220957,10.4867045 8.8550385,8.74022727 C9.49670796,7.02045455 10.651713,5.86147727 12.1024439,5.47159091 C12.4483875,5.37545455 12.8110702,5.32738636 13.1737529,5.32738636 C16.5215936,5.32738636 18.6753711,6.65727273 20.0089276,11.1489773 L20.0089276,11.1489773 Z M23.362348,37.7840909 C23.6078563,41.5440909 20.2488562,44.3106818 15.210356,44.6631818 C10.0937395,45.0210227 5.87546033,42.8152273 5.62995201,39.0659091 C5.51277759,37.2606818 6.33857828,35.4928409 7.962281,34.0881818 C9.60830264,32.6621591 11.8625153,31.78625 14.3175985,31.61 C14.6077447,31.5939773 14.8978909,31.5832955 15.1824573,31.5832955 C19.9196518,31.5832955 23.1279991,34.2484091 23.362348,37.7840909 L23.362348,37.7840909 Z M2.65037384,13.7179545 C2.65037384,17.7076136 4.03972771,20.5863636 6.78495704,22.2794318 C9.03359,23.6627273 11.639326,23.8710227 12.9952014,23.8710227 C13.3244058,23.8710227 13.5866533,23.8603409 13.7707845,23.8443182 C13.7707845,23.8443182 13.341145,26.5254545 15.4168062,29.1798864 L15.3219507,29.1745455 C11.7286017,29.1745455 0,29.8955682 0,39.1246591 C0,48.5193182 10.7688874,48.9946591 12.9338243,48.9946591 C13.1012164,48.9946591 13.2016516,48.9893182 13.2016516,48.9893182 C13.2239705,48.9946591 13.3802031,49 13.6424506,49 C15.0318045,49 18.613994,48.8290909 21.9450954,47.2802273 C26.2638098,45.2773864 28.4566455,41.7844318 28.4566455,36.9081818 C28.4566455,32.1921591 25.1143846,29.3881818 22.6816204,27.3372727 C21.1918313,26.0875 19.9084924,25.0086364 19.9084924,23.9618182 C19.9084924,22.8936364 20.8458877,22.0925 22.0343712,21.0723864 C23.9537998,19.4273864 25.7672135,17.0827273 25.7672135,12.6551136 C25.7672135,8.76693182 25.2371387,6.15522727 21.9897333,4.49420455 C22.3300971,4.32863636 23.5241602,4.21113636 24.1211918,4.13102273 C25.8788082,3.90136364 28.4566455,3.63965909 28.4566455,2.26170455 L28.4566455,2 L15.6232563,2 C15.4949224,2 2.65037384,2.45931818 2.65037384,13.7179545 L2.65037384,13.7179545 Z" id="Fill-200" sketch:type="MSShapeGroup"></path>
        </g>
    </g>
</svg>