<?xml version="1.0" encoding="UTF-8" standalone="no"?>
<svg width="50px" height="50px" viewBox="0 0 50 50" version="1.1" xmlns="http://www.w3.org/2000/svg" xmlns:xlink="http://www.w3.org/1999/xlink" xmlns:sketch="http://www.bohemiancoding.com/sketch/ns">
    <!-- Generator: Sketch 3.1.1 (8761) - http://www.bohemiancoding.com/sketch -->
    <title>instagram</title>
    <desc>Created with Sketch.</desc>
    <defs></defs>
    <g id="Page-1" stroke="none" stroke-width="1" fill="none" fill-rule="evenodd" sketch:type="MSPage">
        <g id="instagram" sketch:type="MSArtboardGroup" fill-opacity="0.992753623" fill="#000000">
            <path d="M33.872093,25.4994767 C33.872093,20.8744186 30.1234884,17.127907 25.5,17.127907 C20.8754651,17.127907 17.127907,20.8744186 17.127907,25.4994767 C17.127907,30.1203488 20.8754651,33.872093 25.5,33.872093 C30.1234884,33.872093 33.872093,30.1203488 33.872093,25.4994767 L33.872093,25.4994767 Z M44.4057558,11.6860465 C44.4057558,12.3767442 43.841686,12.9413372 43.1509884,12.9413372 L39.3825,12.9413372 C38.6928488,12.9413372 38.126686,12.3767442 38.126686,11.6860465 L38.126686,7.91860465 C38.126686,7.22267442 38.6928488,6.66226744 39.3825,6.66226744 L43.1509884,6.66226744 C43.841686,6.66226744 44.4057558,7.22267442 44.4057558,7.91860465 L44.4057558,11.6860465 L44.4057558,11.6860465 Z M40.9690116,3 L10.0315116,3 C6.14581395,3 3,6.14476744 3,10.0273256 L3,17.6506395 L14.3902326,17.6506395 C16.8542442,14.1662791 20.9105233,11.8953488 25.5,11.8953488 C30.0889535,11.8953488 34.1452326,14.1662791 36.6081977,17.6506395 L48,17.6506395 L48,10.0273256 C48,6.14476744 44.8505233,3 40.9690116,3 L40.9690116,3 Z M39.1046512,25.4994767 C39.1046512,33.0139535 33.012907,39.1046512 25.5,39.1046512 C17.9855233,39.1046512 11.8953488,33.0139535 11.8953488,25.4994767 C11.8953488,24.6 11.9843023,23.7261628 12.1491279,22.8837209 L3,22.8837209 L3,40.9674419 C3,44.85 6.14581395,48 10.0315116,48 L40.9690116,48 C44.8505233,48 48,44.85 48,40.9674419 L48,22.8837209 L38.8503488,22.8837209 C39.0156977,23.7261628 39.1046512,24.6 39.1046512,25.4994767 L39.1046512,25.4994767 Z" id="Fill-214" sketch:type="MSShapeGroup"></path>
        </g>
    </g>
</svg>