<?xml version="1.0" encoding="UTF-8" standalone="no"?>
<svg width="50px" height="50px" viewBox="0 0 50 50" version="1.1" xmlns="http://www.w3.org/2000/svg" xmlns:xlink="http://www.w3.org/1999/xlink" xmlns:sketch="http://www.bohemiancoding.com/sketch/ns">
    <!-- Generator: Sketch 3.1.1 (8761) - http://www.bohemiancoding.com/sketch -->
    <title>logo</title>
    <desc>Created with Sketch.</desc>
    <defs></defs>
    <g id="Page-1" stroke="none" stroke-width="1" fill="none" fill-rule="evenodd" sketch:type="MSPage">
        <g id="logo" sketch:type="MSArtboardGroup" fill="#000000">
            <path d="M48.5238314,17.4035527 L44.3934782,21.6120841 L37.5672407,14.6389792 L15.2871023,37.3637728 L22.1237646,44.3241181 L17.9975814,48.5411559 L1.32604979,31.5602952 L5.45223302,27.3496372 L12.4848839,34.5077558 L34.7691923,11.7808356 L27.7448814,4.60783087 L31.8773195,0.399299475 L48.5238314,17.4035527 Z M50,10.2858394 L45.8738168,6.07305479 L48.696885,3.19364523 L45.8946666,0.335501626 L43.0715983,3.21278459 L38.9454151,-1 L36.1431967,1.85601701 L47.1915266,13.1418564 L50,10.2858394 L50,10.2858394 Z M0,38.7290468 L4.12618323,42.933325 L1.45323381,45.6617463 L4.25545223,48.5198899 L6.93257162,45.7914686 L11.0629248,50 L13.8630583,47.1418564 L2.79596347,35.8687766 L0,38.7290468 L0,38.7290468 Z" id="Shape-3" sketch:type="MSShapeGroup"></path>
        </g>
    </g>
</svg>