<?xml version="1.0" encoding="UTF-8" standalone="no"?>
<svg width="50px" height="50px" viewBox="0 0 50 50" version="1.1" xmlns="http://www.w3.org/2000/svg" xmlns:xlink="http://www.w3.org/1999/xlink" xmlns:sketch="http://www.bohemiancoding.com/sketch/ns">
    <!-- Generator: Sketch 3.1.1 (8761) - http://www.bohemiancoding.com/sketch -->
    <title>search</title>
    <desc>Created with Sketch.</desc>
    <defs></defs>
    <g id="Page-1" stroke="none" stroke-width="1" fill="none" fill-rule="evenodd" sketch:type="MSPage">
        <g id="search" sketch:type="MSArtboardGroup" fill="#000000">
            <path d="M6.02526891,19.5778481 C6.02526891,12.0917722 12.0948413,6.02341772 19.5757949,6.02341772 C27.0630776,6.02341772 33.733911,12.6943038 33.733911,20.1803797 C33.733911,27.6658228 27.6643387,33.7348101 20.177056,33.7348101 C12.6961024,33.7348101 6.02526891,27.064557 6.02526891,19.5778481 L6.02526891,19.5778481 Z M48.8730321,42.3012658 L36.9174302,30.343038 C38.7212135,27.3810127 39.7591799,23.9018987 39.7591799,20.1803797 C39.7591799,9.36835443 30.3921652,0 19.5757949,0 C8.76575362,0 0,8.76518987 0,19.5778481 C0,30.3905063 9.3670147,39.7582278 20.177056,39.7582278 C23.7719643,39.7582278 27.1390264,38.7848101 30.0377377,37.0936709 L42.0629592,49.1170886 C43.2338361,50.2943038 45.1452134,50.2943038 46.3224193,49.1170886 L49.3034084,46.1360759 C50.4806143,44.9588608 50.050238,43.4778481 48.8730321,42.3012658 L48.8730321,42.3012658 Z" id="Fill-95" sketch:type="MSShapeGroup"></path>
        </g>
    </g>
</svg>