<?xml version="1.0" encoding="UTF-8" standalone="no"?>
<svg width="50px" height="50px" viewBox="0 0 50 50" version="1.1" xmlns="http://www.w3.org/2000/svg" xmlns:xlink="http://www.w3.org/1999/xlink" xmlns:sketch="http://www.bohemiancoding.com/sketch/ns">
    <!-- Generator: Sketch 3.1.1 (8761) - http://www.bohemiancoding.com/sketch -->
    <title>twitter</title>
    <desc>Created with Sketch.</desc>
    <defs></defs>
    <g id="Page-1" stroke="none" stroke-width="1" fill="none" fill-rule="evenodd" sketch:type="MSPage">
        <g id="twitter" sketch:type="MSArtboardGroup" fill="#000000">
            <path d="M50,9.73451919 C48.1576087,10.5369801 46.1793478,11.0826535 44.1086957,11.3233917 C46.2228261,10.0769025 47.8532609,8.097499 48.6195652,5.73826401 C46.6358696,6.89380768 44.4402174,7.73906647 42.1032609,8.18844456 C40.2336957,6.22509028 37.5652174,5 34.6141304,5 C28.951087,5 24.3586957,9.52052962 24.3586957,15.1003076 C24.3586957,15.892069 24.4456522,16.6624315 24.625,17.4006955 C16.0978261,16.9780661 8.53804348,12.9604119 3.47826087,6.85100976 C2.59782609,8.33823726 2.0923913,10.0769025 2.0923913,11.9279123 C2.0923913,15.4266417 3.90217391,18.518791 6.65217391,20.3323525 C4.97282609,20.2788552 3.39130435,19.8241273 2.00543478,19.0698141 L2.00543478,19.1928581 C2.00543478,24.0878695 5.54347826,28.1697205 10.2336957,29.0952254 C9.375,29.3252641 8.4673913,29.4483081 7.5326087,29.4483081 C6.86956522,29.4483081 6.22826087,29.389461 5.60326087,29.266417 C6.9076087,33.2787214 10.6956522,36.199679 15.1847826,36.2799251 C11.673913,38.9922429 7.25,40.6025144 2.44565217,40.6025144 C1.61956522,40.6025144 0.798913043,40.5543667 0,40.4634212 C4.53804348,43.3255316 9.92934783,45 15.7228261,45 C34.5923913,45 44.9130435,29.6141501 44.9130435,16.2665508 C44.9130435,15.8332219 44.9021739,15.3945433 44.8804348,14.9612144 C46.8858696,13.5381838 48.625,11.7620703 50,9.73451919" id="Fill-212" sketch:type="MSShapeGroup"></path>
        </g>
    </g>
</svg>